<svg height="512pt" viewBox="-64 0 512 512" width="512pt" xmlns="http://www.w3.org/2000/svg"><path d="m141.527344 310.671875-109.550782-63.230469c-30.542968-17.648437-41.054687-56.867187-23.425781-87.441406 17.648438-30.558594 56.867188-41.039062 87.425781-23.425781l29.855469 17.234375zm0 0" fill="#00ddc2"/><path d="m249.625 242.527344 13.695312-155.710938 24.65625-14.222656c30.542969-17.648438 69.777344-7.152344 87.425782 23.40625 17.628906 30.558594 7.117187 69.777344-23.425782 87.425781zm0 0" fill="#00ddc2"/><path d="m287.976562 72.59375-24.65625 14.238281-13.695312 155.710938 67.871094-39.183594 8.703125-87.039063c1.777343-17.679687-.140625-35.328124-5.132813-52.03125-11.265625-.226562-22.671875 2.269532-33.089844 8.304688zm0 0" fill="#0ac1a7"/><path d="m141.527344 310.671875-15.679688-156.863281-29.871094-17.234375c-11.648437-6.71875-24.542968-9.292969-37.023437-8.285157l14.304687 142.992188zm0 0" fill="#0ac1a7"/><path d="m270.457031 352h-156.960937l-23.886719-238.878906c-2.898437-28.863282 6.625-57.761719 26.078125-79.265625 19.472656-21.519531 47.28125-33.855469 76.289062-33.855469 29.007813 0 56.816407 12.335938 76.289063 33.855469 19.472656 21.503906 28.976563 50.402343 26.078125 79.265625zm0 0" fill="#00ddc2"/><path d="m113.496094 352h156.960937l6.398438-64h-169.757813zm0 0" fill="#0ac1a7"/><path d="m255.976562 512h-128c-35.296874 0-64-28.703125-64-64v-128h256v128c0 35.296875-28.703124 64-64 64zm0 0" fill="#c59969"/><path d="m255.976562 480h-128c-35.296874 0-64-28.703125-64-64v32c0 35.296875 28.703126 64 64 64h128c35.296876 0 64-28.703125 64-64v-32c0 35.296875-28.703124 64-64 64zm0 0" fill="#ba8a5a"/><g fill="#fff"><path d="m159.960938 64h32v32h-32zm0 0"/><path d="m191.960938 128h32v32h-32zm0 0"/><path d="m159.960938 192h32v32h-32zm0 0"/><path d="m175.960938 256h32v32h-32zm0 0"/></g></svg>