<svg height="480pt" viewBox="0 0 480 480" width="480pt" xmlns="http://www.w3.org/2000/svg"><path d="m320 184h-80l-19.359375 12.902344c-3.023437 2.019531-6.585937 3.097656-10.214844 3.097656-10.179687 0-18.425781-8.246094-18.425781-18.425781v-27.148438c0-10.179687 8.246094-18.425781 18.425781-18.425781 3.636719 0 7.191407 1.078125 10.214844 3.097656l19.359375 12.902344h80zm0 0" fill="#666"/><path d="m360 48 48-48 72 72-24 24-48-48-24 24zm0 0" fill="#606060"/><path d="m88 184h40v16h-40zm0 0" fill="#8c6239"/><path d="m61.863281 224c-8.878906 0-17.390625-3.527344-23.671875-9.808594l-22.191406-22.191406 22.191406-22.191406c6.28125-6.28125 14.792969-9.808594 23.671875-9.808594 6.609375 0 13.074219 1.960938 18.570313 5.625l2.253906 1.503906c8.320312 5.542969 13.3125 14.878906 13.3125 24.871094s-4.992188 19.328125-13.3125 24.871094l-2.253906 1.503906c-5.496094 3.664062-11.960938 5.625-18.570313 5.625zm0 0" fill="#158f17"/><path d="m66.6875 167.128906-2.253906-1.503906c-3.226563-2.144531-6.792969-3.632812-10.503906-4.554688-5.898438 1.449219-11.371094 4.378907-15.730469 8.738282l-22.199219 22.191406 22.191406 22.191406c4.359375 4.359375 9.832032 7.289063 15.730469 8.738282 3.71875-.929688 7.285156-2.410157 10.511719-4.554688l2.253906-1.503906c8.320312-5.542969 13.3125-14.878906 13.3125-24.871094 0-10-4.992188-19.328125-13.3125-24.871094zm0 0" fill="#1cbf1f"/><path d="m369.945312 376h12.117188c6.371094 0 12.472656-2.527344 16.96875-7.03125l1.945312-1.945312c4.496094-4.496094 7.023438-10.597657 7.023438-16.96875v-2.679688c0-12.632812-3.742188-24.984375-10.753906-35.503906l-21.246094-31.871094-21.246094 31.878906c-7.011718 10.511719-10.753906 22.863282-10.753906 35.496094v2.679688c0 6.371093 2.527344 12.472656 7.03125 16.96875l1.945312 1.945312c4.496094 4.503906 10.597657 7.03125 16.96875 7.03125zm0 0" fill="#1f80aa"/><path d="m383.03125 368.96875 1.945312-1.945312c4.496094-4.496094 7.023438-10.597657 7.023438-16.96875v-2.679688c0-12.632812-3.742188-24.984375-10.753906-35.503906l-13.246094-19.871094-13.246094 19.878906c-7.011718 10.511719-10.753906 22.863282-10.753906 35.496094v2.679688c0 6.371093 2.527344 12.472656 7.03125 16.96875l1.945312 1.945312c4.039063 4.039062 9.382813 6.375 15.03125 6.839844 5.640626-.464844 10.984376-2.800782 15.023438-6.839844zm0 0" fill="#29abe2"/><path d="m441.945312 480h12.117188c6.371094 0 12.472656-2.527344 16.96875-7.03125l1.945312-1.945312c4.496094-4.496094 7.023438-10.597657 7.023438-16.96875v-2.679688c0-12.632812-3.742188-24.984375-10.753906-35.503906l-21.246094-31.871094-21.246094 31.878906c-7.011718 10.511719-10.753906 22.863282-10.753906 35.496094v2.679688c0 6.371093 2.527344 12.472656 7.03125 16.96875l1.945312 1.945312c4.496094 4.503906 10.597657 7.03125 16.96875 7.03125zm0 0" fill="#1f80aa"/><path d="m455.03125 472.96875 1.945312-1.945312c4.496094-4.496094 7.023438-10.597657 7.023438-16.96875v-2.679688c0-12.632812-3.742188-24.984375-10.753906-35.503906l-13.246094-19.871094-13.246094 19.878906c-7.011718 10.511719-10.753906 22.863282-10.753906 35.496094v2.679688c0 6.371093 2.527344 12.472656 7.03125 16.96875l1.945312 1.945312c4.039063 4.039062 9.382813 6.375 15.03125 6.839844 5.640626-.464844 10.984376-2.800782 15.023438-6.839844zm0 0" fill="#29abe2"/><path d="m297.945312 480h12.117188c6.371094 0 12.472656-2.527344 16.96875-7.03125l1.945312-1.945312c4.496094-4.496094 7.023438-10.597657 7.023438-16.96875v-2.679688c0-12.632812-3.742188-24.984375-10.753906-35.503906l-21.246094-31.871094-21.246094 31.878906c-7.011718 10.511719-10.753906 22.863282-10.753906 35.496094v2.679688c0 6.371093 2.527344 12.472656 7.03125 16.96875l1.945312 1.945312c4.496094 4.503906 10.597657 7.03125 16.96875 7.03125zm0 0" fill="#1f80aa"/><path d="m311.03125 472.96875 1.945312-1.945312c4.496094-4.496094 7.023438-10.597657 7.023438-16.96875v-2.679688c0-12.632812-3.742188-24.984375-10.753906-35.503906l-13.246094-19.871094-13.246094 19.878906c-7.011718 10.511719-10.753906 22.863282-10.753906 35.496094v2.679688c0 6.371093 2.527344 12.472656 7.03125 16.96875l1.945312 1.945312c4.039063 4.039062 9.382813 6.375 15.03125 6.839844 5.640626-.464844 10.984376-2.800782 15.023438-6.839844zm0 0" fill="#29abe2"/><path d="m16 304h-16v-32h256v32zm0 0" fill="#8c6239"/><path d="m0 272v32h232v-32zm0 0" fill="#a67c52"/><path d="m16 304 56 176h112l56-176zm0 0" fill="#754c24"/><path d="m16 304 56 176h80l56-176zm0 0" fill="#8c6239"/><path d="m184 480h-112l-16-48h144zm0 0" fill="#603813"/><path d="m56 432 16 48h80l16-48zm0 0" fill="#754c24"/><path d="m184 16-9.425781 56.542969c-3.789063 22.769531-23.496094 39.457031-46.574219 39.457031s-42.785156-16.6875-46.574219-39.457031l-9.425781-56.542969 40 24 16-40 16 40zm0 0" fill="#b1181d"/><path d="m81.425781 72.542969c3.34375 20.082031 19.078125 35.394531 38.574219 38.738281 19.496094-3.34375 35.230469-18.65625 38.574219-38.738281l7.648437-45.878907-22.222656 13.335938-3.097656-7.742188-12.902344 7.742188-8-20-8 20-12.902344-7.742188-3.097656 7.742188-22.222656-13.335938zm0 0" fill="#ec2027"/><path d="m120 112h16v160h-16zm0 0" fill="#8c6239"/><path d="m256 120 96 96h40l56-56v-40l-96-96zm0 0" fill="#999"/><path d="m328 48-72 72 96 96h40l32-32v-40zm0 0" fill="#b3b3b3"/><path d="m312 176 24-24c4.414062-4.414062 11.585938-4.414062 16 0s11.585938 4.414062 16 0l16-16c4.414062-4.414062 11.585938-4.414062 16 0s11.585938 4.414062 16 0l24-24-.070312-.070312 8.070312 8.070312v40l-56 56h-40l-40.304688-40.304688zm0 0" fill="#29abe2"/></svg>