<svg height="511pt" viewBox="-94 1 511 511.99997" width="511pt" xmlns="http://www.w3.org/2000/svg"><path d="m145.441406 197.976562h32.207032v152.988282h-32.207032zm0 0" fill="#77959e"/><path d="m161.546875 218.816406-10.210937-8.390625c-2.222657-1.820312-54.207032-45.121093-54.207032-101.015625 0-55.898437 51.984375-99.199218 54.207032-101.019531l10.210937-8.390625 10.207031 8.390625c2.222656 1.820313 54.207032 45.121094 54.207032 101.019531 0 55.894532-51.984376 99.195313-54.207032 101.015625zm0 0" fill="#9ccc65"/><path d="m218.730469 302.652344c-6.265625 0-10.128907-.402344-10.128907-.402344l-13.09375-1.351562-1.351562-13.09375c-.226562-2.253907-5.074219-55.605469 26.457031-87.136719 23.367188-23.367188 58.28125-26.84375 77.007813-26.84375 6.265625 0 10.128906.402343 10.128906.402343l13.09375 1.351563 1.351562 13.09375c.226563 2.253906 5.074219 55.605469-26.457031 87.136719-23.367187 23.347656-58.28125 26.84375-77.007812 26.84375zm0 0" fill="#9ccc65"/><path d="m104.359375 302.652344c-18.726563 0-53.640625-3.496094-77.007813-26.84375-31.527343-31.53125-26.664062-84.882813-26.457031-87.136719l1.289063-13.09375 13.15625-1.351563s3.863281-.402343 10.128906-.402343c18.730469 0 53.640625 3.492187 77.007812 26.84375 31.53125 31.53125 26.667969 84.882812 26.457032 87.136719l-1.285156 13.09375-13.15625 1.351562s-3.867188.402344-10.132813.402344zm0 0" fill="#9ccc65"/><g fill="#77959e"><path d="m32.714844 44.992188h32.207031v32.207031h-32.207031zm0 0"/><path d="m32.714844 109.410156h32.207031v32.207032h-32.207031zm0 0"/><path d="m258.167969 44.992188h32.207031v32.207031h-32.207031zm0 0"/><path d="m258.167969 109.410156h32.207031v32.207032h-32.207031zm0 0"/></g><path d="m209.855469 512h-96.621094c-26.636719 0-48.3125-21.675781-48.3125-48.3125v-128.828125h193.246094v128.828125c0 26.636719-21.675781 48.3125-48.3125 48.3125zm0 0" fill="#c59969"/><path d="m171.753906 165.433594-10.207031 8.390625-10.210937-8.390625c-1.917969-1.5625-40.613282-33.914063-51.371094-78.523438-1.738282 7.214844-2.816406 14.71875-2.816406 22.5 0 55.894532 51.980468 99.195313 54.203124 101.015625l10.210938 8.390625 10.207031-8.390625c2.222657-1.820312 54.207031-45.121093 54.207031-101.015625 0-7.78125-1.078124-15.285156-2.820312-22.5-10.789062 44.609375-49.484375 76.960938-51.402344 78.523438zm0 0" fill="#7cb342"/><path d="m321.617188 183.257812c-2.078126 18.488282-8.34375 42.789063-25.894532 60.34375-23.367187 23.363282-58.28125 26.84375-77.007812 26.84375-6.265625 0-10.128906-.402343-10.128906-.402343l-13.09375-1.351563-.804688-7.683594c-1.660156 14.734376-.660156 25.796876-.566406 26.796876l1.355468 13.09375 13.089844 1.351562s3.867188.402344 10.128906.402344c18.730469 0 53.644532-3.496094 77.007813-26.84375 31.53125-31.53125 26.667969-84.882813 26.460937-87.136719zm0 0" fill="#7cb342"/><path d="m127.648438 268.691406-13.15625 1.351563s-3.867188.402343-10.132813.402343c-18.726563 0-53.640625-3.496093-77.007813-26.84375-17.582031-17.585937-23.847656-41.953124-25.910156-60.453124l-.546875 5.539062c-.226562 2.253906-5.070312 55.605469 26.457031 87.136719 23.367188 23.367187 58.28125 26.84375 77.007813 26.84375 6.265625 0 10.132813-.402344 10.132813-.402344l13.15625-1.351563 1.285156-13.09375c.097656-.996093 1.097656-11.996093-.546875-26.667968zm0 0" fill="#7cb342"/><path d="m209.855469 479.792969h-96.621094c-26.636719 0-48.3125-21.675781-48.3125-48.3125v32.207031c0 26.636719 21.675781 48.3125 48.3125 48.3125h96.621094c26.636719 0 48.3125-21.675781 48.3125-48.3125v-32.207031c0 26.636719-21.675781 48.3125-48.3125 48.3125zm0 0" fill="#ba8a5a"/><path d="m177.648438 367.066406h32.207031v32.207032h-32.207031zm0 0" fill="#fff"/><path d="m113.234375 367.066406h32.207031v32.207032h-32.207031zm0 0" fill="#fff"/></svg>