<svg height="512pt" viewBox="-61 0 512 512.00001" width="512pt" xmlns="http://www.w3.org/2000/svg"><path d="m316.820312 284.726562h-244.042968l122.027344-284.726562zm0 0" fill="#8eb259"/><path d="m140.34375 127.0625-67.566406 157.664062h244.042968l-67.566406-157.664062-54.449218 65.359375zm0 0" fill="#7ea33d"/><path d="m194.804688 243.132812-188.199219-225.84375 44.5625 267.4375h287.257812l44.5625-267.4375zm0 0" fill="#addb31"/><path d="m321.464844 512h-253.332032l-39.675781-178.574219h332.679688zm0 0" fill="#9b7cab"/><path d="m42.890625 398.363281h303.816406l14.429688-64.9375h-332.679688zm0 0" fill="#88679b"/><path d="m214.253906 219.789062-19.449218 23.34375-19.460938-23.34375h-134.988281l10.8125 64.9375h287.257812l10.8125-64.9375zm0 0" fill="#6fbb2e"/><path d="m357.144531 365.894531h-324.675781c-17.9375 0-32.46875-14.527343-32.46875-32.46875v-81.167969h389.613281v81.167969c0 17.941407-14.546875 32.46875-32.46875 32.46875zm0 0" fill="#9b7cab"/><g fill="#fff"><path d="m32.46875 284.726562h32.464844v32.46875h-32.464844zm0 0"/><path d="m97.402344 284.726562h32.46875v32.46875h-32.46875zm0 0"/></g></svg>